<?xml version="1.0" standalone="no"?>
<!DOCTYPE svg PUBLIC "-//W3C//DTD SVG 20010904//EN"
 "http://www.w3.org/TR/2001/REC-SVG-20010904/DTD/svg10.dtd">
<svg version="1.0" xmlns="http://www.w3.org/2000/svg"
 width="1280.000000pt" height="1280.000000pt" viewBox="0 0 1280.000000 1280.000000"
 preserveAspectRatio="xMidYMid meet">
<g transform="translate(0.000000,1280.000000) scale(0.100000,-0.100000)"
fill="#000000" stroke="none">
<path d="M6325 12694 c-880 -31 -1708 -236 -2492 -619 -967 -471 -1779 -1183
-2380 -2085 -1042 -1566 -1301 -3524 -698 -5298 474 -1396 1410 -2545 2680
-3291 211 -125 585 -307 815 -398 564 -223 1110 -354 1730 -415 182 -18 858
-18 1040 0 809 79 1525 286 2230 643 1501 760 2615 2118 3079 3754 292 1025
305 2103 40 3150 -53 208 -189 618 -274 820 -370 891 -931 1661 -1670 2295
-962 825 -2225 1342 -3490 1429 -173 12 -479 19 -610 15z m-1510 -5179 c105
-19 210 -58 308 -116 95 -55 241 -201 296 -296 173 -293 173 -632 0 -926 -53
-91 -210 -248 -299 -300 -291 -169 -633 -167 -923 4 -95 55 -241 201 -296 296
-243 412 -133 924 254 1192 197 136 425 187 660 146z m3865 -14 c429 -115 712
-525 661 -958 -25 -209 -107 -379 -256 -529 -210 -211 -487 -300 -780 -249
-172 30 -319 104 -447 224 -129 121 -204 241 -255 408 -24 79 -27 103 -27 243
0 140 3 164 27 243 51 167 126 287 255 408 123 116 274 192 447 225 95 18 278
11 375 -15z"/>
</g>
</svg>
